<svg width="24" height="29" viewBox="0 0 24 29" fill="none" xmlns="http://www.w3.org/2000/svg">
<path fill-rule="evenodd" clip-rule="evenodd" d="M12 28.3941C9.96875 28.3941 8.25 27.3132 8.25 25.3059H15.75C15.75 27.3132 14.0312 28.3941 12 28.3941ZM20.9935 17.5856C20.9935 19.9017 24 19.9017 24 21.4458C24 22.2178 24 23.7619 20.8434 23.7619H2.97646C0 23.7619 0 22.2178 0 21.4458C0 19.9017 2.97646 19.9017 3 17.5856V12.9534C3 6.7772 6.14587 2.91704 10.5 2.29942V2.14501C10.5 1.21858 11.25 0.600952 12 0.600952C12.75 0.600952 13.5 1.21858 13.5 2.14501V2.29942C17.8541 2.91704 20.9935 6.7772 20.9935 12.9534V17.5856Z" fill="black"/>
</svg>
