<svg width="25" height="25" viewBox="0 0 25 25" fill="none" xmlns="http://www.w3.org/2000/svg">
<path d="M7.9062 23.7674C7.62976 23.5422 7.40611 23.2586 7.25113 22.9368C7.09615 22.615 7.01366 22.2628 7.00951 21.9053V19.3496H5.07074C4.52329 19.3738 3.97683 19.2833 3.46609 19.0839C2.95535 18.8845 2.4915 18.5805 2.10403 18.1914C1.71655 17.8022 1.41393 17.3363 1.2154 16.8234C1.01687 16.3104 0.926771 15.7615 0.950832 15.2117V4.25852C0.926771 3.70869 1.01687 3.15985 1.2154 2.64688C1.41393 2.13391 1.71655 1.66804 2.10403 1.27887C2.4915 0.889709 2.95535 0.585768 3.46609 0.386371C3.97683 0.186974 4.52329 0.0964821 5.07074 0.120648H20.8233C21.3708 0.0964821 21.9172 0.186974 22.428 0.386371C22.9387 0.585768 23.4025 0.889709 23.79 1.27887C24.1775 1.66804 24.4801 2.13391 24.6786 2.64688C24.8772 3.15985 24.9673 3.70869 24.9432 4.25852V15.2117C24.9673 15.7615 24.8772 16.3104 24.6786 16.8234C24.4801 17.3363 24.1775 17.8022 23.79 18.1914C23.4025 18.5805 22.9387 18.8845 22.428 19.0839C21.9172 19.2833 21.3708 19.3738 20.8233 19.3496H15.1766L10.669 23.3171C10.3513 23.7302 9.88915 24.0066 9.37613 24.0903C8.86311 24.1739 8.33763 24.0584 7.9062 23.7674ZM13.8801 17.5727C14.1881 17.2999 14.5842 17.1486 14.9949 17.1468H20.8233C21.084 17.1712 21.3468 17.1375 21.593 17.0483C21.8393 16.9591 22.0629 16.8164 22.248 16.6305C22.4332 16.4446 22.5752 16.22 22.664 15.9726C22.7529 15.7253 22.7864 15.4613 22.7621 15.1995V4.24635C22.7864 3.98455 22.7529 3.72059 22.664 3.47327C22.5752 3.22594 22.4332 3.00132 22.248 2.8154C22.0629 2.62948 21.8393 2.48682 21.593 2.39759C21.3468 2.30835 21.084 2.27473 20.8233 2.29912H5.07074C4.80896 2.27445 4.54499 2.30829 4.29777 2.39822C4.05056 2.48815 3.82624 2.63192 3.6409 2.81923C3.45556 3.00654 3.31381 3.23274 3.22581 3.48159C3.13782 3.73043 3.10577 3.99576 3.13196 4.25852V15.2117C3.10768 15.4735 3.14115 15.7375 3.23 15.9848C3.31885 16.2321 3.46088 16.4567 3.646 16.6427C3.83111 16.8286 4.05475 16.9712 4.30101 17.0605C4.54726 17.1497 4.81007 17.1833 5.07074 17.1589H8.10008C8.94829 17.4024 8.94829 17.4024 9.19064 18.2543V21.6984L13.8801 17.5727Z" fill="#4B5563"/>
</svg>
