<svg width="25" height="25" viewBox="0 0 25 25" fill="none" xmlns="http://www.w3.org/2000/svg">
<path d="M9.6263 3.13867C8.35551 3.13829 7.10515 3.45848 5.99095 4.0696C4.87675 4.68072 3.93471 5.56303 3.25202 6.63487C2.56933 7.70671 2.16804 8.93345 2.0853 10.2015C2.00257 11.4696 2.24105 12.7381 2.77868 13.8896L2.04939 16.7523C1.99579 16.9626 1.99744 17.1832 2.0542 17.3926C2.11095 17.6021 2.22087 17.7933 2.3733 17.9478C2.52573 18.1022 2.7155 18.2147 2.92418 18.2742C3.13287 18.3337 3.3534 18.3383 3.56437 18.2874C4.31984 18.1061 5.48126 17.8271 6.51576 17.5803C7.54292 18.0435 8.66068 18.2711 9.78717 18.2463C10.9137 18.2216 12.0204 17.9452 13.0262 17.4374C14.0321 16.9296 14.9116 16.2032 15.6003 15.3114C16.2891 14.4197 16.7697 13.3852 17.0068 12.2836C17.244 11.1821 17.2318 10.0415 16.9711 8.9453C16.7103 7.84911 16.2077 6.82513 15.5 5.94835C14.7923 5.07157 13.8974 4.36419 12.8809 3.87804C11.8644 3.39188 10.7521 3.13926 9.62529 3.13867H9.6263ZM3.5825 10.6934C3.5829 9.37919 4.01167 8.10091 4.80383 7.05227C5.596 6.00362 6.70839 5.24176 7.97245 4.88213C9.23652 4.52251 10.5834 4.58471 11.8089 5.05931C13.0344 5.53392 14.0719 6.39506 14.764 7.51226C15.4561 8.62945 15.7653 9.94181 15.6445 11.2505C15.5238 12.5591 14.9798 13.7928 14.0949 14.7645C13.2101 15.7362 12.0326 16.393 10.7409 16.6354C9.44922 16.8777 8.11374 16.6925 6.93681 16.1077L6.69103 15.9858L6.4251 16.0492C5.49536 16.2708 4.42057 16.5277 3.61675 16.7211L4.31179 13.9933L4.3823 13.7153L4.25135 13.4605C3.81019 12.6049 3.58082 11.656 3.5825 10.6934ZM14.6628 21.2701C12.6784 21.2701 10.8733 20.5055 9.52557 19.2555H9.6263C10.3495 19.2555 11.0516 19.1658 11.7215 18.9966C12.5928 19.4821 13.5951 19.7591 14.6628 19.7591C15.6298 19.7591 16.5424 19.5325 17.3523 19.1295L17.5971 19.0077L17.863 19.0711C18.7917 19.2927 19.8433 19.5194 20.623 19.6856C20.4467 18.9291 20.206 17.9168 19.9763 17.0152L19.9058 16.7372L20.0367 16.4824C20.4782 15.6269 20.708 14.678 20.7066 13.7153C20.7071 12.7049 20.4541 11.7104 19.9706 10.8231C19.4872 9.93579 18.7888 9.18396 17.9395 8.63651C17.7619 7.91701 17.491 7.22382 17.1337 6.57457C18.1337 6.92083 19.0498 7.47323 19.8227 8.19601C20.5957 8.91879 21.2082 9.79583 21.6207 10.7704C22.0332 11.7449 22.2364 12.7952 22.2173 13.8532C22.1981 14.9113 21.9569 15.9535 21.5094 16.9125C21.7643 17.9278 22.0221 19.0278 22.1853 19.7359C22.2331 19.9411 22.2285 20.155 22.1718 20.3579C22.1151 20.5608 22.0081 20.7461 21.8608 20.8967C21.7135 21.0473 21.5307 21.1583 21.3291 21.2195C21.1275 21.2808 20.9138 21.2902 20.7076 21.2469C19.7271 21.043 18.749 20.8281 17.7733 20.6022C16.7959 21.0438 15.7354 21.2715 14.6628 21.2701Z" fill="#4B5563"/>
</svg>
