<svg width="27" height="27" viewBox="0 0 27 27" fill="none" xmlns="http://www.w3.org/2000/svg">
<path d="M16.5155 16.4854C17.5696 16.4854 18.4252 17.3409 18.4252 18.3951L18.4241 19.4448C18.5518 21.8347 16.7752 23.0427 13.5877 23.0427C10.4122 23.0427 8.604 21.8532 8.604 19.4863V18.3951C8.604 17.3409 9.45953 16.4854 10.5137 16.4854H16.5155ZM16.5155 18.1223H10.5137C10.4413 18.1223 10.3719 18.151 10.3208 18.2022C10.2696 18.2533 10.2409 18.3227 10.2409 18.3951V19.4863C10.2409 20.7696 11.2088 21.4058 13.5877 21.4058C15.9535 21.4058 16.856 20.7903 16.7883 19.4885V18.3951C16.7883 18.3227 16.7596 18.2533 16.7084 18.2022C16.6572 18.151 16.5878 18.1223 16.5155 18.1223ZM4.51184 11.0292H9.28712C9.14962 11.5634 9.11445 12.1188 9.18345 12.6661H4.51184C4.43949 12.6661 4.3701 12.6948 4.31894 12.746C4.26778 12.7971 4.23903 12.8665 4.23903 12.9389V14.0301C4.23903 15.3134 5.20696 15.9496 7.58587 15.9496C8.09002 15.9496 8.52761 15.9212 8.903 15.8656C8.27862 16.2611 7.82268 16.8737 7.62297 17.5854L7.58587 17.5865C4.41036 17.5865 2.60217 16.397 2.60217 14.0301V12.9389C2.60217 11.8847 3.45771 11.0292 4.51184 11.0292ZM22.5173 11.0292C23.5715 11.0292 24.427 11.8847 24.427 12.9389L24.4259 13.9886C24.5536 16.3785 22.777 17.5865 19.5895 17.5865L19.4051 17.5843C19.1993 16.8532 18.7245 16.2271 18.076 15.8317C18.4983 15.9103 19.0002 15.9496 19.5895 15.9496C21.9553 15.9496 22.8578 15.3341 22.7901 14.0323V12.9389C22.7901 12.8665 22.7614 12.7971 22.7102 12.746C22.6591 12.6948 22.5897 12.6661 22.5173 12.6661H17.8468C17.9143 12.1187 17.8788 11.5635 17.742 11.0292H22.5173ZM13.5146 8.84671C13.9445 8.84671 14.3702 8.93139 14.7674 9.0959C15.1646 9.26043 15.5255 9.50157 15.8295 9.80556C16.1334 10.1096 16.3746 10.4704 16.5391 10.8676C16.7036 11.2648 16.7883 11.6905 16.7883 12.1204C16.7883 12.5503 16.7036 12.976 16.5391 13.3732C16.3746 13.7704 16.1334 14.1313 15.8295 14.4353C15.5255 14.7393 15.1646 14.9804 14.7674 15.145C14.3702 15.3095 13.9445 15.3942 13.5146 15.3942C12.6463 15.3942 11.8137 15.0492 11.1997 14.4353C10.5858 13.8214 10.2409 12.9887 10.2409 12.1204C10.2409 11.2522 10.5858 10.4195 11.1997 9.80556C11.8137 9.19162 12.6463 8.84671 13.5146 8.84671ZM13.5146 10.4836C13.2996 10.4836 13.0868 10.5259 12.8882 10.6082C12.6896 10.6904 12.5091 10.811 12.3571 10.963C12.2051 11.115 12.0846 11.2954 12.0023 11.494C11.9201 11.6926 11.8777 11.9055 11.8777 12.1204C11.8777 12.3354 11.9201 12.5482 12.0023 12.7468C12.0846 12.9454 12.2051 13.1259 12.3571 13.2779C12.5091 13.4299 12.6896 13.5504 12.8882 13.6327C13.0868 13.715 13.2996 13.7573 13.5146 13.7573C13.9487 13.7573 14.365 13.5848 14.672 13.2779C14.979 12.9709 15.1514 12.5546 15.1514 12.1204C15.1514 11.6863 14.979 11.27 14.672 10.963C14.365 10.656 13.9487 10.4836 13.5146 10.4836ZM7.51276 3.3905C8.381 3.3905 9.21369 3.73541 9.82763 4.34935C10.4416 4.9633 10.7865 5.79598 10.7865 6.66423C10.7865 7.53247 10.4416 8.36516 9.82763 8.9791C9.21369 9.59304 8.381 9.93795 7.51276 9.93795C6.64451 9.93795 5.81183 9.59304 5.19789 8.9791C4.58394 8.36516 4.23903 7.53247 4.23903 6.66423C4.23903 5.79598 4.58394 4.9633 5.19789 4.34935C5.81183 3.73541 6.64451 3.3905 7.51276 3.3905ZM19.5164 3.3905C20.3847 3.3905 21.2173 3.73541 21.8313 4.34935C22.4452 4.9633 22.7901 5.79598 22.7901 6.66423C22.7901 7.53247 22.4452 8.36516 21.8313 8.9791C21.2173 9.59304 20.3847 9.93795 19.5164 9.93795C18.6482 9.93795 17.8155 9.59304 17.2015 8.9791C16.5876 8.36516 16.2427 7.53247 16.2427 6.66423C16.2427 5.79598 16.5876 4.9633 17.2015 4.34935C17.8155 3.73541 18.6482 3.3905 19.5164 3.3905ZM7.51276 5.02736C7.07863 5.02736 6.66229 5.19982 6.35532 5.50679C6.04835 5.81376 5.8759 6.2301 5.8759 6.66423C5.8759 7.09835 6.04835 7.51469 6.35532 7.82166C6.66229 8.12863 7.07863 8.30109 7.51276 8.30109C7.94688 8.30109 8.36322 8.12863 8.67019 7.82166C8.97716 7.51469 9.14962 7.09835 9.14962 6.66423C9.14962 6.2301 8.97716 5.81376 8.67019 5.50679C8.36322 5.19982 7.94688 5.02736 7.51276 5.02736ZM19.5164 5.02736C19.0823 5.02736 18.6659 5.19982 18.359 5.50679C18.052 5.81376 17.8795 6.2301 17.8795 6.66423C17.8795 7.09835 18.052 7.51469 18.359 7.82166C18.6659 8.12863 19.0823 8.30109 19.5164 8.30109C19.9505 8.30109 20.3669 8.12863 20.6738 7.82166C20.9808 7.51469 21.1533 7.09835 21.1533 6.66423C21.1533 6.2301 20.9808 5.81376 20.6738 5.50679C20.3669 5.19982 19.9505 5.02736 19.5164 5.02736Z" fill="#4B5563"/>
</svg>
