<svg width="25" height="25" viewBox="0 0 25 25" fill="none" xmlns="http://www.w3.org/2000/svg">
<g clip-path="url(#clip0_136_276)">
<path fill-rule="evenodd" clip-rule="evenodd" d="M12.6007 2.46591C12.5337 2.41245 12.4506 2.38334 12.365 2.38334C12.2793 2.38334 12.1962 2.41245 12.1293 2.46591L4.19678 8.8119C4.15235 8.84737 4.11649 8.89244 4.09189 8.94371C4.06731 8.99499 4.0546 9.05117 4.05475 9.10804V19.7134C4.05475 19.9219 4.22398 20.0911 4.43249 20.0911H8.5876V12.1586C8.5876 11.8581 8.707 11.5699 8.91951 11.3573C9.13203 11.1448 9.42027 11.0254 9.72081 11.0254H15.0091C15.3097 11.0254 15.598 11.1448 15.8104 11.3573C16.023 11.5699 16.1423 11.8581 16.1423 12.1586V20.0911H20.2975C20.3976 20.0911 20.4937 20.0514 20.5646 19.9805C20.6355 19.9097 20.6752 19.8136 20.6752 19.7134V9.10653C20.675 9.04992 20.6623 8.99404 20.6377 8.94303C20.6131 8.89204 20.5774 8.84722 20.5332 8.8119L12.6007 2.46591ZM10.712 0.696581C11.1809 0.321292 11.7636 0.116821 12.3642 0.116821C12.9648 0.116821 13.5475 0.321292 14.0164 0.696581L21.9489 7.04257C22.576 7.54419 22.9416 8.30422 22.9416 9.10804V19.7134C22.9416 20.4146 22.663 21.0871 22.1671 21.583C21.6712 22.0789 20.9987 22.3576 20.2975 22.3576H15.0091C14.7086 22.3576 14.4203 22.2382 14.2078 22.0256C13.9953 21.8132 13.8759 21.5249 13.8759 21.2243V13.2919H10.854V21.2243C10.854 21.5249 10.7346 21.8132 10.5221 22.0256C10.3096 22.2382 10.0214 22.3576 9.72081 22.3576H4.43249C3.73121 22.3576 3.05866 22.0789 2.56278 21.583C2.0669 21.0871 1.78833 20.4146 1.78833 19.7134V9.10653C1.78833 8.30422 2.15398 7.54419 2.78102 7.04257L10.7135 0.696581H10.712Z" fill="#4B5563"/>
</g>
<defs>
<clipPath id="clip0_136_276">
<rect width="24.1752" height="24.1752" fill="white" transform="translate(0.277344 0.116821)"/>
</clipPath>
</defs>
</svg>
