<svg width="25" height="25" viewBox="0 0 25 25" fill="none" xmlns="http://www.w3.org/2000/svg">
<path fill-rule="evenodd" clip-rule="evenodd" d="M16.4269 7.67157C16.4269 8.67339 16.029 9.63417 15.3206 10.3426C14.6122 11.051 13.6514 11.4489 12.6496 11.4489C11.6478 11.4489 10.687 11.051 9.97858 10.3426C9.27017 9.63417 8.8722 8.67339 8.8722 7.67157C8.8722 6.66975 9.27017 5.70895 9.97858 5.00056C10.687 4.29217 11.6478 3.8942 12.6496 3.8942C13.6514 3.8942 14.6122 4.29217 15.3206 5.00056C16.029 5.70895 16.4269 6.66975 16.4269 7.67157ZM16.5191 12.3147C17.473 11.5194 18.1586 10.4496 18.483 9.25072C18.8073 8.05186 18.7543 6.78222 18.3313 5.61453C17.9084 4.44684 17.136 3.43778 16.1193 2.72463C15.1025 2.01149 13.8907 1.62891 12.6488 1.62891C11.4069 1.62891 10.1951 2.01149 9.17835 2.72463C8.16159 3.43778 7.38919 4.44684 6.96628 5.61453C6.54335 6.78222 6.4904 8.05186 6.81467 9.25072C7.13893 10.4496 7.82465 11.5194 8.77853 12.3147C7.29113 13.0179 6.02296 14.1124 5.10979 15.4809C4.19662 16.8495 3.67282 18.4406 3.59446 20.084C3.58718 20.3802 3.69612 20.6674 3.89798 20.8841C4.09983 21.1009 4.37854 21.2301 4.67444 21.2438C4.97033 21.2577 5.25987 21.1551 5.48106 20.9581C5.70225 20.7611 5.83751 20.4853 5.85786 20.1898C5.94024 18.4439 6.69175 16.7968 7.95643 15.5905C9.2211 14.384 10.9018 13.7109 12.6496 13.7109C14.3974 13.7109 16.0781 14.384 17.3427 15.5905C18.6074 16.7968 19.3589 18.4439 19.4413 20.1898C19.4451 20.3407 19.4788 20.4893 19.5407 20.6269C19.6027 20.7645 19.6915 20.8884 19.802 20.9912C19.9124 21.0941 20.0423 21.1739 20.1839 21.2258C20.3257 21.2778 20.4763 21.3009 20.6271 21.2938C20.7779 21.2869 20.9256 21.2497 21.0619 21.1847C21.1981 21.1198 21.32 21.0284 21.4203 20.9156C21.5208 20.8029 21.5976 20.6713 21.6464 20.5285C21.6953 20.3858 21.7151 20.2345 21.7047 20.084C21.6261 18.4404 21.1021 16.8492 20.1888 15.4806C19.2752 14.1121 18.0068 13.0177 16.5191 12.3147Z" fill="#4B5563"/>
</svg>
